<svg width="27" height="17" viewBox="0 0 27 17" fill="none" xmlns="http://www.w3.org/2000/svg">
<path fill-rule="evenodd" clip-rule="evenodd" d="M0.8125 8.50003C0.8125 8.25968 0.90798 8.02917 1.07793 7.85921C1.24789 7.68926 1.4784 7.59378 1.71875 7.59378H23.0936L17.3896 1.89166C17.2195 1.72149 17.1239 1.49069 17.1239 1.25003C17.1239 1.00937 17.2195 0.778575 17.3896 0.608406C17.5598 0.438236 17.7906 0.342636 18.0312 0.342636C18.2719 0.342636 18.5027 0.438236 18.6729 0.608406L25.9229 7.8584C26.0073 7.94259 26.0742 8.04259 26.1199 8.15269C26.1656 8.26279 26.1891 8.38083 26.1891 8.50003C26.1891 8.61923 26.1656 8.73726 26.1199 8.84736C26.0742 8.95747 26.0073 9.05747 25.9229 9.14165L18.6729 16.3917C18.5027 16.5618 18.2719 16.6574 18.0312 16.6574C17.7906 16.6574 17.5598 16.5618 17.3896 16.3917C17.2195 16.2215 17.1239 15.9907 17.1239 15.75C17.1239 15.5094 17.2195 15.2786 17.3896 15.1084L23.0936 9.40628H1.71875C1.4784 9.40628 1.24789 9.3108 1.07793 9.14085C0.90798 8.97089 0.8125 8.74038 0.8125 8.50003Z" fill="#FF8A00"/>
</svg>
