<svg width="180" height="155" fill="none" xmlns="http://www.w3.org/2000/svg"><g filter="url(#b)" fill="#FF8A00" clip-path="url(#a)"><path d="M114.683 57.403C107.888 49.198 99.3 44.68 90.5 44.68s-17.388 4.518-24.183 12.723c-6.107 7.375-9.752 16.67-9.752 24.862 0 3.98 1.216 7.012 3.615 9.011 2.368 1.974 5.495 2.641 8.983 2.641 3.711 0 7.832-.756 11.881-1.499 3.538-.649 6.88-1.262 9.456-1.262 2.223 0 5.358.582 8.676 1.198 7.755 1.44 16.545 3.072 21.622-1.15 2.414-2.008 3.638-5.015 3.638-8.939 0-8.193-3.646-17.487-9.753-24.862ZM115.377 12.851c-2.486-3.666-6.045-5.768-9.766-5.768s-7.28 2.102-9.767 5.768c-2.283 3.368-3.541 7.79-3.541 12.452 0 4.663 1.258 9.085 3.541 12.453 2.486 3.665 6.046 5.768 9.767 5.768 3.721 0 7.28-2.103 9.766-5.768 2.284-3.368 3.542-7.79 3.542-12.453 0-4.662-1.258-9.085-3.542-12.452ZM85.156 12.85c-2.486-3.665-6.046-5.767-9.767-5.767-3.72 0-7.28 2.102-9.766 5.768-2.284 3.367-3.542 7.79-3.542 12.452 0 4.663 1.258 9.085 3.542 12.453 2.486 3.665 6.045 5.768 9.766 5.768s7.28-2.103 9.767-5.768c2.283-3.368 3.541-7.79 3.541-12.453 0-4.662-1.258-9.085-3.541-12.452ZM140.405 41.452c-1.003-3.41-3.151-5.887-6.049-6.976-2.332-.876-4.964-.727-7.412.419-3.374 1.579-6.132 4.839-7.566 8.945-1.171 3.355-1.318 6.901-.411 9.986 1.002 3.41 3.15 5.887 6.049 6.975a8.896 8.896 0 0 0 3.136.564c1.425 0 2.881-.329 4.277-.982 3.373-1.579 6.131-4.84 7.565-8.945 1.171-3.355 1.317-6.901.411-9.986ZM61.622 43.84c-1.434-4.106-4.192-7.367-7.565-8.946-2.448-1.145-5.081-1.294-7.413-.418-2.898 1.089-5.046 3.566-6.048 6.976-.907 3.084-.761 6.63.41 9.986 1.435 4.106 4.192 7.366 7.566 8.945 1.396.653 2.851.982 4.276.982a8.9 8.9 0 0 0 3.137-.564c2.898-1.089 5.046-3.566 6.048-6.976.907-3.084.76-6.63-.41-9.986Z"/></g><path d="M11.102 121.52 7.84 126H5.656l4.312-5.74-3.836-4.228h2.156l3.892 4.48v-4.48h1.75v4.48l3.892-4.48h2.156l-3.836 4.228 4.312 5.74H18.27l-3.262-4.48-1.078 1.204V126h-1.75v-3.276l-1.078-1.204Zm20.663-5.488V126H30.1v-7.686L27.328 126H25.9l-2.842-7.686V126h-1.652v-9.968h2.45l2.785 7.798 2.689-7.798h2.436ZM33.82 126v-9.968h1.75v7.644l4.284-7.644h2.03V126h-1.75v-7.644L35.849 126h-2.03Zm22.064-9.968V126h-1.75v-4.48h-4.564V126h-1.75v-9.968h1.75v3.962h4.564v-3.962h1.75Zm6.617-.014L66.35 126h-1.876l-.952-2.646h-3.948l-.98 2.646h-1.806l3.85-9.982H62.5Zm.56 6.02-1.484-4.2-1.554 4.2h3.038ZM78.983 126h-1.75v-8.456h-3.08l-.182 4.746c-.056 1.325-.327 2.305-.812 2.94-.476.635-1.097.952-1.862.952-.336 0-.686-.061-1.05-.182v-1.344c.186.075.415.112.686.112.27 0 .49-.065.658-.196.168-.131.317-.42.448-.868.13-.457.21-1.087.238-1.89l.196-5.782h6.51V126Zm6.61-9.982 3.85 9.982h-1.877l-.952-2.646h-3.948l-.98 2.646H79.88l3.85-9.982h1.862Zm.56 6.02-1.485-4.2-1.554 4.2h3.038Zm12.263-6.006V126h-1.75v-8.456h-4.564V126h-1.75v-9.968h8.064Zm10.412 0-3.99 3.976L109.08 126h-2.17l-3.276-4.774-1.428 1.428V126h-1.736v-9.968h1.736v4.522l4.41-4.522h2.212Zm3.564 7.168-3.444-7.168h1.932l2.408 5.348 2.464-5.348h1.89l-3.878 7.938c-.402.821-.831 1.405-1.288 1.75a2.517 2.517 0 0 1-1.554.518c-.411 0-.803-.084-1.176-.252v-1.47c.27.168.644.252 1.12.252.298 0 .55-.117.756-.35.205-.233.457-.63.756-1.19l.014-.028Zm6.277.91v1.428c0 .728-.14 1.311-.42 1.75-.28.448-.774.751-1.484.91v-.84c.579-.177.882-.63.91-1.358h-.91v-1.89h1.904Zm11.713-2.478c-1.073.187-1.946.28-2.618.28-.578 0-1.092-.07-1.54-.21-.438-.149-.779-.327-1.022-.532a2.73 2.73 0 0 1-.574-.756 3.076 3.076 0 0 1-.294-.784 4.056 4.056 0 0 1-.07-.756v-2.842h1.75v2.31c0 .224.005.401.014.532.01.131.052.303.126.518.075.215.178.383.308.504.131.121.332.229.602.322.271.093.598.14.98.14.766 0 1.545-.079 2.338-.238v-4.088h1.75V126h-1.75v-4.368Zm10.97-5.6v1.512h-3.178V126h-1.75v-8.456h-3.178v-1.512h8.106Zm5.197-.238c1.41 0 2.553.485 3.43 1.456.887.961 1.33 2.217 1.33 3.766s-.443 2.809-1.33 3.78c-.886.961-2.039 1.442-3.458 1.442-1.428 0-2.585-.481-3.472-1.442-.877-.961-1.316-2.221-1.316-3.78 0-1.512.43-2.758 1.288-3.738.868-.989 2.044-1.484 3.528-1.484Zm-.028 1.47c-.914 0-1.647.341-2.198 1.022-.55.672-.826 1.573-.826 2.702 0 1.157.271 2.077.812 2.758.551.681 1.298 1.022 2.24 1.022.906 0 1.629-.341 2.17-1.022.551-.691.826-1.605.826-2.744 0-1.139-.275-2.044-.826-2.716-.541-.681-1.274-1.022-2.198-1.022Zm14.515 5.642c0 .989-.299 1.755-.896 2.296-.588.532-1.423.798-2.506.798h-4.732v-9.968h7.336v1.512h-5.586v2.296h2.982c1.092 0 1.932.266 2.52.798.588.532.882 1.288.882 2.268Zm-1.75.042c0-.523-.154-.933-.462-1.232-.308-.299-.737-.448-1.288-.448h-2.884v3.304h2.912c1.148 0 1.722-.541 1.722-1.624Zm11.005-.042c0 .989-.298 1.755-.896 2.296-.588.532-1.423.798-2.506.798h-4.13v-9.968h1.75v3.808h2.38c1.092 0 1.932.266 2.52.798.588.532.882 1.288.882 2.268Zm-1.75.042c0-.523-.154-.933-.462-1.232-.308-.299-.737-.448-1.288-.448h-2.282v3.304h2.31c1.148 0 1.722-.541 1.722-1.624Zm2.926-6.916h1.75V126h-1.75v-9.968Zm-105.7 22V148h-1.75v-8.456h-4.563V148h-1.75v-9.968h8.064Zm6.366-.238c1.41 0 2.553.485 3.43 1.456.887.961 1.33 2.217 1.33 3.766s-.443 2.809-1.33 3.78c-.886.961-2.04 1.442-3.458 1.442-1.428 0-2.585-.481-3.472-1.442-.877-.961-1.316-2.221-1.316-3.78 0-1.512.43-2.758 1.288-3.738.868-.989 2.044-1.484 3.528-1.484Zm-.028 1.47c-.915 0-1.647.341-2.198 1.022-.55.672-.826 1.573-.826 2.702 0 1.157.27 2.077.812 2.758.55.681 1.297 1.022 2.24 1.022.906 0 1.629-.341 2.17-1.022.55-.691.826-1.605.826-2.744 0-1.139-.275-2.044-.826-2.716-.541-.681-1.274-1.022-2.198-1.022Zm16.727-1.232V148h-1.666v-7.686L84.394 148h-1.428l-2.842-7.686V148h-1.652v-9.968h2.45l2.786 7.798 2.688-7.798h2.436Zm6.38-.238c1.409 0 2.552.485 3.43 1.456.886.961 1.33 2.217 1.33 3.766s-.444 2.809-1.33 3.78c-.887.961-2.04 1.442-3.459 1.442-1.428 0-2.585-.481-3.472-1.442-.877-.961-1.316-2.221-1.316-3.78 0-1.512.43-2.758 1.288-3.738.868-.989 2.044-1.484 3.528-1.484Zm-.029 1.47c-.914 0-1.647.341-2.198 1.022-.55.672-.826 1.573-.826 2.702 0 1.157.27 2.077.812 2.758.55.681 1.298 1.022 2.24 1.022.906 0 1.629-.341 2.17-1.022.55-.691.826-1.605.826-2.744 0-1.139-.275-2.044-.826-2.716-.541-.681-1.274-1.022-2.198-1.022Zm12.135 4.368c-1.073.187-1.946.28-2.618.28-.579 0-1.092-.07-1.54-.21-.439-.149-.779-.327-1.022-.532a2.71 2.71 0 0 1-.574-.756 3.076 3.076 0 0 1-.294-.784 3.973 3.973 0 0 1-.07-.756v-2.842h1.75v2.31c0 .224.005.401.014.532.009.131.051.303.126.518.075.215.177.383.308.504s.331.229.602.322c.271.093.597.14.98.14.765 0 1.545-.079 2.338-.238v-4.088h1.75V148h-1.75v-4.368Zm11.642 1.274c0 .989-.299 1.755-.896 2.296-.588.532-1.423.798-2.506.798h-4.41v-9.968h1.75v3.808h2.66c1.092 0 1.932.266 2.52.798.588.532.882 1.288.882 2.268Zm-1.75.042c0-.523-.154-.933-.462-1.232-.308-.299-.737-.448-1.288-.448h-2.562v3.304h2.59c1.148 0 1.722-.541 1.722-1.624Zm5.012-6.916v2.856l-.448 4.354h-.826l-.434-4.34v-2.87h1.708Zm.056 8.19V148h-1.82v-1.778h1.82Z" fill="#FF8A00"/><defs><clipPath id="a"><path fill="#fff" transform="translate(35)" d="M0 0h111v101H0z"/></clipPath><filter id="b" x="34.008" y="5.083" width="112.985" height="98.834" filterUnits="userSpaceOnUse" color-interpolation-filters="sRGB"><feFlood flood-opacity="0" result="BackgroundImageFix"/><feColorMatrix in="SourceAlpha" values="0 0 0 0 0 0 0 0 0 0 0 0 0 0 0 0 0 0 127 0" result="hardAlpha"/><feOffset dy="4"/><feGaussianBlur stdDeviation="3"/><feComposite in2="hardAlpha" operator="out"/><feColorMatrix values="0 0 0 0 0 0 0 0 0 0 0 0 0 0 0 0 0 0 0.25 0"/><feBlend in2="BackgroundImageFix" result="effect1_dropShadow_44_270"/><feBlend in="SourceGraphic" in2="effect1_dropShadow_44_270" result="shape"/></filter></defs></svg>