<svg width="80" height="90" fill="none" xmlns="http://www.w3.org/2000/svg"><g filter="url(#b)" fill="#FF8A00" clip-path="url(#a)"><path d="M56.404 38.08c-4.468-5.444-10.116-8.441-15.904-8.441s-11.436 2.997-15.904 8.44c-4.016 4.892-6.414 11.058-6.414 16.493 0 2.64.8 4.651 2.378 5.977 1.557 1.31 3.613 1.752 5.907 1.752 2.441 0 5.151-.501 7.814-.994 2.327-.43 4.525-.837 6.22-.837 1.461 0 3.523.386 5.705.794 5.1.956 10.88 2.038 14.22-.763 1.587-1.331 2.392-3.326 2.392-5.93 0-5.434-2.398-11.6-6.414-16.492ZM56.86 8.525C55.227 6.093 52.886 4.7 50.439 4.7c-2.447 0-4.788 1.394-6.423 3.826-1.502 2.234-2.33 5.168-2.33 8.26 0 3.093.828 6.027 2.33 8.261 1.635 2.432 3.976 3.826 6.423 3.826s4.788-1.394 6.423-3.826c1.502-2.234 2.329-5.168 2.329-8.26 0-3.093-.827-6.027-2.33-8.26ZM36.985 8.525c-1.635-2.432-3.975-3.827-6.423-3.827-2.447 0-4.788 1.395-6.423 3.827-1.502 2.234-2.329 5.167-2.329 8.26s.827 6.027 2.33 8.26c1.634 2.433 3.975 3.827 6.422 3.827 2.448 0 4.788-1.394 6.423-3.826 1.502-2.234 2.33-5.168 2.33-8.26 0-3.094-.828-6.027-2.33-8.261ZM73.32 27.498c-.659-2.262-2.072-3.905-3.978-4.628-1.533-.58-3.265-.482-4.875.278-2.218 1.047-4.032 3.21-4.975 5.934-.77 2.226-.867 4.578-.27 6.624.659 2.262 2.071 3.905 3.977 4.628.66.25 1.356.374 2.063.374a6.59 6.59 0 0 0 2.813-.652c2.218-1.047 4.032-3.21 4.975-5.934.77-2.225.867-4.578.27-6.624ZM21.508 29.081c-.943-2.723-2.756-4.886-4.975-5.933-1.61-.76-3.342-.859-4.875-.278-1.906.723-3.319 2.366-3.978 4.628-.596 2.046-.5 4.398.27 6.624.944 2.724 2.757 4.886 4.976 5.934a6.592 6.592 0 0 0 2.812.651c.707 0 1.403-.124 2.063-.374 1.906-.722 3.319-2.365 3.978-4.627.596-2.046.5-4.399-.27-6.625Z"/></g><path d="M8.572 76.252c1.208 0 2.188.416 2.94 1.248.76.824 1.14 1.9 1.14 3.228 0 1.328-.38 2.408-1.14 3.24-.76.824-1.748 1.236-2.964 1.236-1.224 0-2.216-.412-2.976-1.236-.752-.824-1.128-1.904-1.128-3.24 0-1.296.368-2.364 1.104-3.204.744-.848 1.752-1.272 3.024-1.272Zm-.024 1.26c-.784 0-1.412.292-1.884.876-.472.576-.708 1.348-.708 2.316 0 .992.232 1.78.696 2.364.472.584 1.112.876 1.92.876.776 0 1.396-.292 1.86-.876.472-.592.708-1.376.708-2.352s-.236-1.752-.708-2.328c-.464-.584-1.092-.876-1.884-.876Zm11.379-1.056v1.296h-2.724V85h-1.5v-7.248h-2.724v-1.296h6.948Zm7.869 0V85h-1.5v-7.248h-3.912V85h-1.5v-8.544h6.912Zm1.796 0H33.3c.92 0 1.644.22 2.172.66.536.432.804 1.08.804 1.944 0 .816-.248 1.464-.744 1.944-.496.472-1.172.708-2.028.708h-2.412V85h-1.5v-8.544Zm1.5 1.248V80.5h2.088c1.088 0 1.632-.468 1.632-1.404 0-.928-.588-1.392-1.764-1.392h-1.956Zm9.49-1.26 3.3 8.556h-1.609l-.816-2.268h-3.384L37.233 85h-1.548l3.3-8.556h1.596Zm.48 5.16-1.273-3.6-1.332 3.6h2.604Zm3.611-5.148h3.9c.896 0 1.58.196 2.052.588.48.384.72.904.72 1.56 0 .408-.112.776-.336 1.104-.224.32-.52.552-.888.696.496.12.888.36 1.176.72.288.36.432.812.432 1.356 0 .752-.252 1.36-.756 1.824-.496.464-1.144.696-1.944.696h-4.356v-8.544Zm1.464 1.212v2.352h2.04c.576 0 1-.088 1.272-.264.272-.184.408-.488.408-.912 0-.48-.144-.796-.432-.948-.28-.152-.68-.228-1.2-.228h-2.088Zm0 3.432v2.676h2.244c.576 0 1.028-.096 1.356-.288.328-.192.492-.54.492-1.044 0-.28-.052-.512-.156-.696a.882.882 0 0 0-.432-.42 2.096 2.096 0 0 0-.576-.18 4.544 4.544 0 0 0-.708-.048h-2.22ZM53.11 85v-8.544h1.5v6.552l3.672-6.552h1.74V85h-1.5v-6.552L54.85 85h-1.74Zm14.817-8.544v1.296h-2.725V85h-1.5v-7.248h-2.724v-1.296h6.949Zm7.689 5.892c0 .848-.256 1.504-.768 1.968-.504.456-1.22.684-2.148.684h-3.78v-8.544h1.5v3.264h2.28c.936 0 1.656.228 2.16.684.504.456.756 1.104.756 1.944Zm-1.5.036c0-.448-.132-.8-.396-1.056s-.632-.384-1.104-.384H70.42v2.832h2.22c.984 0 1.476-.464 1.476-1.392Z" fill="#FF8A00"/><defs><clipPath id="a"><path fill="#fff" transform="translate(4)" d="M0 0h73v71H0z"/></clipPath><filter id="b" x="1.293" y="2.698" width="78.413" height="69.603" filterUnits="userSpaceOnUse" color-interpolation-filters="sRGB"><feFlood flood-opacity="0" result="BackgroundImageFix"/><feColorMatrix in="SourceAlpha" values="0 0 0 0 0 0 0 0 0 0 0 0 0 0 0 0 0 0 127 0" result="hardAlpha"/><feOffset dy="4"/><feGaussianBlur stdDeviation="3"/><feComposite in2="hardAlpha" operator="out"/><feColorMatrix values="0 0 0 0 0 0 0 0 0 0 0 0 0 0 0 0 0 0 0.25 0"/><feBlend in2="BackgroundImageFix" result="effect1_dropShadow_44_325"/><feBlend in="SourceGraphic" in2="effect1_dropShadow_44_325" result="shape"/></filter></defs></svg>